<?xml version="1.0" encoding="UTF-8"?>
<svg xmlns="http://www.w3.org/2000/svg" viewBox="0 0 96 120" role="img" aria-label="MBW logo mark">
  <title>MBW</title>
  <defs>
    <style>
      .ink { fill: #123c64; stroke: #123c64; }
      .stroke { fill: none; stroke: #123c64; stroke-width: 10; stroke-linecap: round; stroke-linejoin: round; }
    </style>
  </defs>

  <!-- Flame -->
  <path class="ink" d="M48 8c9 8 13 17 12 24-1 7-7 12-12 14-5-2-11-7-12-14-1-7 3-16 12-24z"/>

  <!-- Torch rim -->
  <rect class="ink" x="28" y="40" width="40" height="7" rx="3.5"/>

  <!-- Torch neck -->
  <path class="ink" d="M44 47h8c2 0 3 1 3 3v6c0 1-1 3-3 3h-8c-2 0-3-2-3-3v-6c0-2 1-3 3-3z"/>

  <!-- Celtic/infinity knot around the handle -->
  <path class="stroke" d="M22 74c0-10 10-18 26-18s26 8 26 18-10 18-26 18S22 84 22 74z"/>
  <path class="stroke" d="M29 90 67 58"/>
  <path class="stroke" d="M67 90 29 58"/>

  <!-- Handle foot -->
  <path class="ink" d="M40 84h16l-3 18H43z"/>
</svg>
